<svg xmlns="http://www.w3.org/2000/svg" xmlns:xlink="http://www.w3.org/1999/xlink" fill="none" version="1.1" width="18" height="18" viewBox="0 0 18 18"><g><g><g><g style="opacity:0;"></g><g><path d="M9.375,1.6875C9.375,1.6875,5.625,1.6875,5.625,1.6875C3.0375,1.6875,0.9375,3.7875,0.9375,6.375C0.9375,7.4625,1.32,8.52,2.01,9.36C2.2125,9.6,2.565,9.629999999999999,2.8049999999999997,9.434999999999999C3.045,9.2325,3.075,8.879999999999999,2.88,8.64C2.355,8.002500000000001,2.0625,7.2,2.0625,6.375C2.0625,4.41,3.66,2.8125,5.625,2.8125C5.625,2.8125,9.375,2.8125,9.375,2.8125C11.34,2.8125,12.9375,4.41,12.9375,6.375C12.9375,8.34,11.34,9.9375,9.375,9.9375C9.375,9.9375,7.5,9.9375,7.5,9.9375C7.1925,9.9375,6.9375,10.1925,6.9375,10.5C6.9375,10.8075,7.1925,11.0625,7.5,11.0625C7.5,11.0625,9.375,11.0625,9.375,11.0625C11.9625,11.0625,14.0625,8.9625,14.0625,6.375C14.0625,3.7875,11.9625,1.6875,9.375,1.6875Z" fill="#1BBA85" fill-opacity="1"/></g><g><path d="M15.99,8.64C15.7875,8.4,15.435,8.3625,15.195,8.565C14.955,8.7675,14.925,9.120000000000001,15.12,9.36C15.645,9.9975,15.9375,10.8,15.9375,11.625C15.9375,13.59,14.34,15.1875,12.375,15.1875C12.375,15.1875,8.625,15.1875,8.625,15.1875C6.66,15.1875,5.0625,13.59,5.0625,11.625C5.0625,9.66,6.66,8.0625,8.625,8.0625C8.625,8.0625,10.5,8.0625,10.5,8.0625C10.807500000000001,8.0625,11.0625,7.8075,11.0625,7.5C11.0625,7.1925,10.807500000000001,6.9375,10.5,6.9375C10.5,6.9375,8.625,6.9375,8.625,6.9375C6.0375,6.9375,3.9375,9.0375,3.9375,11.625C3.9375,14.2125,6.0375,16.3125,8.625,16.3125C8.625,16.3125,12.375,16.3125,12.375,16.3125C14.9625,16.3125,17.0625,14.2125,17.07,11.625C17.07,10.5375,16.6875,9.48,15.99,8.64Z" fill="#1BBA85" fill-opacity="1"/></g></g></g></g></svg>